<svg width="106" height="52" viewBox="0 0 106 52" fill="none" xmlns="http://www.w3.org/2000/svg">
<path d="M5.61523 10.5957C5.2832 10.5957 4.99674 10.6217 4.75586 10.6738C4.52148 10.7194 4.31966 10.7747 4.15039 10.8398C3.98112 10.9049 3.84115 10.9798 3.73047 11.0645C3.61979 11.1426 3.52214 11.2142 3.4375 11.2793L3.53516 11.377C3.65885 11.3118 3.79232 11.2467 3.93555 11.1816C4.08529 11.1165 4.27409 11.084 4.50195 11.084C4.88607 11.084 5.2181 11.2109 5.49805 11.4648C5.77799 11.7122 5.91797 12.1094 5.91797 12.6562C5.91797 13.1771 5.70312 13.597 5.27344 13.916C4.85026 14.2285 4.2806 14.3848 3.56445 14.3848C2.88086 14.3848 2.33398 14.1895 1.92383 13.7988C1.52018 13.4017 1.31836 12.8418 1.31836 12.1191C1.31836 11.722 1.42904 11.3281 1.65039 10.9375C1.87174 10.5404 2.21354 10.1855 2.67578 9.87305C3.14453 9.56055 3.73698 9.30339 4.45312 9.10156C5.17578 8.89974 6.04492 8.79883 7.06055 8.79883C8.27148 8.79883 9.26107 8.91276 10.0293 9.14062C10.7975 9.36849 11.3932 9.66146 11.8164 10.0195C12.2461 10.3776 12.5391 10.7845 12.6953 11.2402C12.8581 11.696 12.9395 12.1549 12.9395 12.6172V16.4355C12.9395 17.028 12.959 17.4316 12.998 17.6465C13.0371 17.8548 13.1836 17.959 13.4375 17.959C13.6393 17.959 13.7793 17.8646 13.8574 17.6758C13.9421 17.4805 13.9844 17.1484 13.9844 16.6797V15.459H15.0977V16.6992C15.0977 17.2852 15.0488 17.806 14.9512 18.2617C14.8535 18.7109 14.668 19.0983 14.3945 19.4238C14.1211 19.7428 13.75 19.9837 13.2812 20.1465C12.8125 20.3158 12.2135 20.4004 11.4844 20.4004C10.8268 20.4004 10.2799 20.3288 9.84375 20.1855C9.41406 20.0488 9.07227 19.8763 8.81836 19.668C8.56445 19.4596 8.38216 19.2448 8.27148 19.0234C8.16732 18.7956 8.11523 18.5938 8.11523 18.418H7.95898C7.91992 18.6849 7.80599 18.9388 7.61719 19.1797C7.4349 19.4206 7.17773 19.6354 6.8457 19.8242C6.52018 20.0065 6.1263 20.153 5.66406 20.2637C5.20833 20.3809 4.6875 20.4395 4.10156 20.4395C3.54167 20.4395 3.0306 20.3841 2.56836 20.2734C2.11263 20.1693 1.72201 20.0033 1.39648 19.7754C1.07747 19.541 0.826823 19.2415 0.644531 18.877C0.46875 18.5059 0.380859 18.0664 0.380859 17.5586C0.380859 16.9336 0.556641 16.4421 0.908203 16.084C1.25977 15.7194 1.70247 15.4329 2.23633 15.2246C2.77018 15.0098 3.34961 14.8372 3.97461 14.707C4.60612 14.5703 5.1888 14.4076 5.72266 14.2188C6.25651 14.0299 6.69922 13.7858 7.05078 13.4863C7.40234 13.1868 7.57812 12.7637 7.57812 12.2168C7.57812 11.7285 7.42513 11.3379 7.11914 11.0449C6.81315 10.7454 6.31185 10.5957 5.61523 10.5957ZM7.57812 14.8242C7.4349 15.0326 7.25586 15.2018 7.04102 15.332C6.82617 15.4557 6.61784 15.5794 6.41602 15.7031C6.2207 15.8203 6.04818 15.9635 5.89844 16.1328C5.75521 16.2956 5.68359 16.5169 5.68359 16.7969C5.68359 17.0117 5.74219 17.207 5.85938 17.3828C5.97656 17.5521 6.20443 17.6367 6.54297 17.6367C6.84896 17.6367 7.09635 17.5195 7.28516 17.2852C7.48047 17.0443 7.57812 16.709 7.57812 16.2793V14.8242ZM22.5586 5.61523V15.3223C22.5586 15.7585 22.666 16.0449 22.8809 16.1816C23.0957 16.3118 23.3691 16.377 23.7012 16.377H23.9648V20H15.7422V16.377H16.123C16.4681 16.377 16.722 16.2695 16.8848 16.0547C17.054 15.8333 17.1387 15.5957 17.1387 15.3418V10.3418C17.1387 9.96419 17.0182 9.6875 16.7773 9.51172C16.543 9.32943 16.2695 9.23828 15.957 9.23828H15.7422V5.61523H22.5586ZM31.7773 5.61523V15.3223C31.7773 15.7585 31.8848 16.0449 32.0996 16.1816C32.3145 16.3118 32.5879 16.377 32.9199 16.377H33.1836V20H24.9609V16.377H25.3418C25.6868 16.377 25.9408 16.2695 26.1035 16.0547C26.2728 15.8333 26.3574 15.5957 26.3574 15.3418V10.3418C26.3574 9.96419 26.237 9.6875 25.9961 9.51172C25.7617 9.32943 25.4883 9.23828 25.1758 9.23828H24.9609V5.61523H31.7773Z" fill="black"/>
<path d="M48.2363 5.61523V9.23828H51.1562V12.8613H48.2363V15.8594C48.2363 16.2891 48.2949 16.6406 48.4121 16.9141C48.5358 17.1875 48.7865 17.3242 49.1641 17.3242C49.3724 17.3242 49.5384 17.2852 49.6621 17.207C49.7923 17.1224 49.8932 17.015 49.9648 16.8848C50.043 16.748 50.0918 16.5951 50.1113 16.4258C50.1309 16.25 50.1406 16.0612 50.1406 15.8594V14.4043H51.2637V15.9766C51.2637 16.6081 51.1953 17.1973 51.0586 17.7441C50.9284 18.291 50.7005 18.763 50.375 19.1602C50.056 19.5573 49.6198 19.873 49.0664 20.1074C48.513 20.3418 47.8164 20.459 46.9766 20.459C46.0456 20.459 45.3034 20.3451 44.75 20.1172C44.1966 19.8893 43.7767 19.5768 43.4902 19.1797C43.2038 18.7826 43.015 18.3105 42.9238 17.7637C42.8392 17.2168 42.7969 16.6211 42.7969 15.9766V12.8613H41.2637V9.63867C41.752 9.63867 42.2044 9.53451 42.6211 9.32617C43.0443 9.11133 43.4056 8.81836 43.7051 8.44727C44.0111 8.06966 44.2454 7.63997 44.4082 7.1582C44.5775 6.67643 44.6621 6.16211 44.6621 5.61523H48.2363ZM62.4844 8.79883C63.3438 8.79883 64.0404 8.92578 64.5742 9.17969C65.1146 9.43359 65.5345 9.75586 65.834 10.1465C66.14 10.5306 66.3483 10.9505 66.459 11.4062C66.5697 11.8555 66.625 12.2786 66.625 12.6758V15.4199C66.625 15.765 66.6836 16.0124 66.8008 16.1621C66.9245 16.3053 67.1589 16.377 67.5039 16.377H68.0312V20H61.2734V13.7598C61.2734 13.5059 61.2409 13.304 61.1758 13.1543C61.1172 12.998 61.0391 12.8809 60.9414 12.8027C60.8503 12.7181 60.7461 12.6628 60.6289 12.6367C60.5117 12.6107 60.3978 12.5977 60.2871 12.5977C59.8639 12.5977 59.5482 12.7214 59.3398 12.9688C59.1315 13.2161 59.0273 13.5677 59.0273 14.0234V15.4199C59.0273 15.765 59.0859 16.0124 59.2031 16.1621C59.3268 16.3053 59.5612 16.377 59.9062 16.377H60.6289V20H52.2695V16.377H52.8457C53.1126 16.377 53.3145 16.2923 53.4512 16.123C53.5944 15.9473 53.666 15.7389 53.666 15.498L53.6465 10.3418C53.6465 9.96419 53.526 9.6875 53.2852 9.51172C53.0508 9.32943 52.7773 9.23828 52.4648 9.23828H52.2695V5.61523H59.0273V9.23828C59.0273 9.36198 58.9883 9.57682 58.9102 9.88281C58.832 10.1888 58.6855 10.4948 58.4707 10.8008L58.666 10.8984C59.0176 10.2604 59.4896 9.7526 60.082 9.375C60.6745 8.99089 61.4753 8.79883 62.4844 8.79883ZM74.2031 15.2246C74.2292 16.1947 74.4115 16.8652 74.75 17.2363C75.0951 17.6009 75.5866 17.7832 76.2246 17.7832C76.4395 17.7832 76.6478 17.7539 76.8496 17.6953C77.0579 17.6302 77.25 17.5293 77.4258 17.3926C77.6016 17.2493 77.7513 17.0638 77.875 16.8359C78.0052 16.6016 78.0898 16.3086 78.1289 15.957H81.6836C81.5534 16.7969 81.3125 17.5 80.9609 18.0664C80.6159 18.6328 80.1699 19.0918 79.623 19.4434C79.0762 19.7884 78.4382 20.0358 77.709 20.1855C76.9863 20.3418 76.179 20.4199 75.2871 20.4199C74.3691 20.4199 73.5065 20.3027 72.6992 20.0684C71.8919 19.834 71.1823 19.4792 70.5703 19.0039C69.9648 18.5221 69.4896 17.9199 69.1445 17.1973C68.7995 16.4681 68.627 15.6022 68.627 14.5996C68.627 13.6426 68.7897 12.8027 69.1152 12.0801C69.4408 11.3574 69.8965 10.7552 70.4824 10.2734C71.0749 9.78516 71.7715 9.41732 72.5723 9.16992C73.3796 8.92253 74.265 8.79883 75.2285 8.79883C76.4134 8.79883 77.4323 8.95508 78.2852 9.26758C79.138 9.58008 79.8346 10.0163 80.375 10.5762C80.9154 11.1361 81.3125 11.8099 81.5664 12.5977C81.8203 13.3854 81.9408 14.2611 81.9277 15.2246H74.2031ZM75.6484 11.4355C75.1927 11.4355 74.8542 11.5983 74.6328 11.9238C74.418 12.2428 74.2747 12.7734 74.2031 13.5156H77.0645C77.0254 12.8776 76.8887 12.373 76.6543 12.002C76.4199 11.6243 76.0846 11.4355 75.6484 11.4355Z" fill="black"/>
<path d="M10.7422 42.3223C10.3255 42.3223 9.95443 42.2995 9.62891 42.2539C9.30339 42.2148 9.00716 42.1562 8.74023 42.0781C8.47331 42 8.2194 41.9089 7.97852 41.8047C7.73763 41.694 7.49674 41.5801 7.25586 41.4629V42.4199C7.25586 42.765 7.31445 43.0091 7.43164 43.1523C7.55534 43.3021 7.79297 43.377 8.14453 43.377H8.7207V47H0.498047V43.377H1.08398C1.35091 43.377 1.55273 43.2891 1.68945 43.1133C1.83268 42.944 1.9043 42.7389 1.9043 42.498V35.6426C1.9043 35.3366 1.81315 35.1315 1.63086 35.0273C1.44857 34.9167 1.24349 34.8613 1.01562 34.8613H0.498047V31.2383H6.83594V33.2402H7.00195C7.24284 32.5632 7.66927 32.0033 8.28125 31.5605C8.89323 31.1178 9.73307 30.8965 10.8008 30.8965C12.3307 30.8965 13.5254 31.3815 14.3848 32.3516C15.2507 33.3151 15.6836 34.7311 15.6836 36.5996C15.6836 38.4681 15.2409 39.8906 14.3555 40.8672C13.4766 41.8372 12.2721 42.3223 10.7422 42.3223ZM10.1172 36.6973C10.1172 36.3522 10.0977 36.0234 10.0586 35.7109C10.0195 35.3984 9.94466 35.125 9.83398 34.8906C9.72982 34.6562 9.58659 34.474 9.4043 34.3438C9.22852 34.207 8.99414 34.1387 8.70117 34.1387C8.4082 34.1387 8.16732 34.2038 7.97852 34.334C7.78971 34.4577 7.64323 34.6302 7.53906 34.8516C7.4349 35.0729 7.36003 35.3366 7.31445 35.6426C7.27539 35.9486 7.25586 36.2741 7.25586 36.6191V39.0215C7.36654 39.1908 7.57161 39.3275 7.87109 39.4316C8.17057 39.5293 8.44727 39.5781 8.70117 39.5781C8.99414 39.5781 9.22852 39.4967 9.4043 39.334C9.58659 39.1647 9.72982 38.9434 9.83398 38.6699C9.94466 38.3965 10.0195 38.0872 10.0586 37.7422C10.0977 37.3971 10.1172 37.0488 10.1172 36.6973ZM22.6953 31.2383L22.5293 33.9238H22.6953C22.9232 32.8952 23.3008 32.1172 23.8281 31.5898C24.362 31.0625 25.0521 30.7988 25.8984 30.7988C26.3997 30.7988 26.8294 30.8802 27.1875 31.043C27.5521 31.1992 27.8451 31.4108 28.0664 31.6777C28.2878 31.9447 28.4473 32.2539 28.5449 32.6055C28.6426 32.9505 28.6914 33.3086 28.6914 33.6797C28.6914 33.9857 28.6458 34.2884 28.5547 34.5879C28.4635 34.8874 28.3171 35.1576 28.1152 35.3984C27.9134 35.6393 27.653 35.8346 27.334 35.9844C27.015 36.1276 26.6211 36.1992 26.1523 36.1992C25.5013 36.1992 24.987 36.0332 24.6094 35.7012C24.2383 35.3691 24.0527 34.9688 24.0527 34.5C24.0527 34.2721 24.0788 34.0801 24.1309 33.9238C24.1829 33.7611 24.235 33.6309 24.2871 33.5332C24.3457 33.429 24.3848 33.3542 24.4043 33.3086C24.4238 33.263 24.401 33.2402 24.3359 33.2402C24.1992 33.2402 24.0495 33.3965 23.8867 33.709C23.7305 34.0215 23.6523 34.513 23.6523 35.1836V37.4199C23.6523 37.765 23.7109 38.0124 23.8281 38.1621C23.9518 38.3053 24.1862 38.377 24.5312 38.377H25.1172V42H16.8945V38.377H17.4707C17.7376 38.377 17.9395 38.2923 18.0762 38.123C18.2194 37.9473 18.291 37.7389 18.291 37.498V35.6426C18.291 35.3366 18.1999 35.1315 18.0176 35.0273C17.8418 34.9167 17.64 34.8613 17.4121 34.8613H16.8945V31.2383H22.6953ZM34.1699 32.5957C33.8379 32.5957 33.5514 32.6217 33.3105 32.6738C33.0762 32.7194 32.8743 32.7747 32.7051 32.8398C32.5358 32.9049 32.3958 32.9798 32.2852 33.0645C32.1745 33.1426 32.0768 33.2142 31.9922 33.2793L32.0898 33.377C32.2135 33.3118 32.347 33.2467 32.4902 33.1816C32.64 33.1165 32.8288 33.084 33.0566 33.084C33.4408 33.084 33.7728 33.2109 34.0527 33.4648C34.3327 33.7122 34.4727 34.1094 34.4727 34.6562C34.4727 35.1771 34.2578 35.597 33.8281 35.916C33.4049 36.2285 32.8353 36.3848 32.1191 36.3848C31.4355 36.3848 30.8887 36.1895 30.4785 35.7988C30.0749 35.4017 29.873 34.8418 29.873 34.1191C29.873 33.722 29.9837 33.3281 30.2051 32.9375C30.4264 32.5404 30.7682 32.1855 31.2305 31.873C31.6992 31.5605 32.2917 31.3034 33.0078 31.1016C33.7305 30.8997 34.5996 30.7988 35.6152 30.7988C36.8262 30.7988 37.8158 30.9128 38.584 31.1406C39.3522 31.3685 39.9479 31.6615 40.3711 32.0195C40.8008 32.3776 41.0938 32.7845 41.25 33.2402C41.4128 33.696 41.4941 34.1549 41.4941 34.6172V38.4355C41.4941 39.028 41.5137 39.4316 41.5527 39.6465C41.5918 39.8548 41.7383 39.959 41.9922 39.959C42.194 39.959 42.334 39.8646 42.4121 39.6758C42.4967 39.4805 42.5391 39.1484 42.5391 38.6797V37.459H43.6523V38.6992C43.6523 39.2852 43.6035 39.806 43.5059 40.2617C43.4082 40.7109 43.2227 41.0983 42.9492 41.4238C42.6758 41.7428 42.3047 41.9837 41.8359 42.1465C41.3672 42.3158 40.7682 42.4004 40.0391 42.4004C39.3815 42.4004 38.8346 42.3288 38.3984 42.1855C37.9688 42.0488 37.627 41.8763 37.373 41.668C37.1191 41.4596 36.9368 41.2448 36.8262 41.0234C36.722 40.7956 36.6699 40.5938 36.6699 40.418H36.5137C36.4746 40.6849 36.3607 40.9388 36.1719 41.1797C35.9896 41.4206 35.7324 41.6354 35.4004 41.8242C35.0749 42.0065 34.681 42.153 34.2188 42.2637C33.763 42.3809 33.2422 42.4395 32.6562 42.4395C32.0964 42.4395 31.5853 42.3841 31.123 42.2734C30.6673 42.1693 30.2767 42.0033 29.9512 41.7754C29.6322 41.541 29.3815 41.2415 29.1992 40.877C29.0234 40.5059 28.9355 40.0664 28.9355 39.5586C28.9355 38.9336 29.1113 38.4421 29.4629 38.084C29.8145 37.7194 30.2572 37.4329 30.791 37.2246C31.3249 37.0098 31.9043 36.8372 32.5293 36.707C33.1608 36.5703 33.7435 36.4076 34.2773 36.2188C34.8112 36.0299 35.2539 35.7858 35.6055 35.4863C35.957 35.1868 36.1328 34.7637 36.1328 34.2168C36.1328 33.7285 35.9798 33.3379 35.6738 33.0449C35.3678 32.7454 34.8665 32.5957 34.1699 32.5957ZM36.1328 36.8242C35.9896 37.0326 35.8105 37.2018 35.5957 37.332C35.3809 37.4557 35.1725 37.5794 34.9707 37.7031C34.7754 37.8203 34.6029 37.9635 34.4531 38.1328C34.3099 38.2956 34.2383 38.5169 34.2383 38.7969C34.2383 39.0117 34.2969 39.207 34.4141 39.3828C34.5312 39.5521 34.7591 39.6367 35.0977 39.6367C35.4036 39.6367 35.651 39.5195 35.8398 39.2852C36.0352 39.0443 36.1328 38.709 36.1328 38.2793V36.8242ZM51.1914 33.4355C50.6315 33.4355 50.2018 33.6732 49.9023 34.1484C49.6029 34.6237 49.4531 35.4147 49.4531 36.5215C49.4531 37.6283 49.6061 38.416 49.9121 38.8848C50.2246 39.347 50.6999 39.5781 51.3379 39.5781C51.5202 39.5781 51.7057 39.5488 51.8945 39.4902C52.0833 39.4316 52.2526 39.347 52.4023 39.2363C52.5586 39.1191 52.6855 38.9727 52.7832 38.7969C52.8874 38.6146 52.946 38.403 52.959 38.1621H56.1133C55.9049 39.6139 55.319 40.6882 54.3555 41.3848C53.3984 42.0749 52.0312 42.4199 50.2539 42.4199C49.362 42.4199 48.5286 42.3027 47.7539 42.0684C46.9792 41.834 46.3053 41.4792 45.7324 41.0039C45.1595 40.5221 44.7103 39.9199 44.3848 39.1973C44.0592 38.4681 43.8965 37.6022 43.8965 36.5996C43.8965 35.6426 44.0592 34.8027 44.3848 34.0801C44.7103 33.3574 45.166 32.7552 45.752 32.2734C46.3444 31.7852 47.041 31.4173 47.8418 31.1699C48.6491 30.9225 49.5345 30.7988 50.498 30.7988C51.5202 30.7988 52.3828 30.9258 53.0859 31.1797C53.7891 31.4336 54.3555 31.7526 54.7852 32.1367C55.2214 32.5143 55.5306 32.9245 55.7129 33.3672C55.9017 33.8034 55.9961 34.2135 55.9961 34.5977C55.9961 34.9036 55.9505 35.2031 55.8594 35.4961C55.7747 35.7891 55.6315 36.056 55.4297 36.2969C55.2344 36.5378 54.9837 36.7331 54.6777 36.8828C54.3717 37.026 53.9974 37.0977 53.5547 37.0977C53.1315 37.0977 52.7865 37.0391 52.5195 36.9219C52.2526 36.7982 52.0443 36.6484 51.8945 36.4727C51.7513 36.2904 51.6471 36.1016 51.582 35.9062C51.5234 35.7044 51.4941 35.5156 51.4941 35.3398C51.4941 34.9427 51.5885 34.627 51.7773 34.3926C51.9661 34.1582 52.1842 33.9954 52.4316 33.9043C52.2884 33.7936 52.1419 33.6895 51.9922 33.5918C51.849 33.4876 51.582 33.4355 51.1914 33.4355ZM63.8184 27.6152V31.2383H66.7383V34.8613H63.8184V37.8594C63.8184 38.2891 63.877 38.6406 63.9941 38.9141C64.1178 39.1875 64.3685 39.3242 64.7461 39.3242C64.9544 39.3242 65.1204 39.2852 65.2441 39.207C65.3743 39.1224 65.4753 39.015 65.5469 38.8848C65.625 38.748 65.6738 38.5951 65.6934 38.4258C65.7129 38.25 65.7227 38.0612 65.7227 37.8594V36.4043H66.8457V37.9766C66.8457 38.6081 66.7773 39.1973 66.6406 39.7441C66.5104 40.291 66.2826 40.763 65.957 41.1602C65.638 41.5573 65.2018 41.873 64.6484 42.1074C64.0951 42.3418 63.3984 42.459 62.5586 42.459C61.6276 42.459 60.8854 42.3451 60.332 42.1172C59.7786 41.8893 59.3587 41.5768 59.0723 41.1797C58.7858 40.7826 58.597 40.3105 58.5059 39.7637C58.4212 39.2168 58.3789 38.6211 58.3789 37.9766V34.8613H56.8457V31.6387C57.334 31.6387 57.7865 31.5345 58.2031 31.3262C58.6263 31.1113 58.9876 30.8184 59.2871 30.4473C59.5931 30.0697 59.8275 29.64 59.9902 29.1582C60.1595 28.6764 60.2441 28.1621 60.2441 27.6152H63.8184ZM74.668 31.2383V37.3223C74.668 37.7585 74.7754 38.0449 74.9902 38.1816C75.2051 38.3118 75.4785 38.377 75.8105 38.377H76.0742V42H67.8516V38.377H68.2324C68.5775 38.377 68.8314 38.2695 68.9941 38.0547C69.1634 37.8333 69.248 37.5957 69.248 37.3418V35.9648C69.248 35.5872 69.1276 35.3105 68.8867 35.1348C68.6523 34.9525 68.3789 34.8613 68.0664 34.8613H67.8516V31.2383H74.668ZM69.0918 28.8359C69.0918 28.276 69.3034 27.7975 69.7266 27.4004C70.1562 27.0033 70.765 26.8047 71.5527 26.8047C72.3535 26.8047 72.9688 27.0033 73.3984 27.4004C73.8346 27.7975 74.0527 28.276 74.0527 28.8359C74.0527 29.4089 73.8346 29.8939 73.3984 30.291C72.9688 30.6816 72.3535 30.877 71.5527 30.877C70.765 30.877 70.1562 30.6816 69.7266 30.291C69.3034 29.8939 69.0918 29.4089 69.0918 28.8359ZM83.9648 33.4355C83.4049 33.4355 82.9753 33.6732 82.6758 34.1484C82.3763 34.6237 82.2266 35.4147 82.2266 36.5215C82.2266 37.6283 82.3796 38.416 82.6855 38.8848C82.998 39.347 83.4733 39.5781 84.1113 39.5781C84.2936 39.5781 84.4792 39.5488 84.668 39.4902C84.8568 39.4316 85.026 39.347 85.1758 39.2363C85.332 39.1191 85.459 38.9727 85.5566 38.7969C85.6608 38.6146 85.7194 38.403 85.7324 38.1621H88.8867C88.6784 39.6139 88.0924 40.6882 87.1289 41.3848C86.1719 42.0749 84.8047 42.4199 83.0273 42.4199C82.1354 42.4199 81.3021 42.3027 80.5273 42.0684C79.7526 41.834 79.0788 41.4792 78.5059 41.0039C77.9329 40.5221 77.4837 39.9199 77.1582 39.1973C76.8327 38.4681 76.6699 37.6022 76.6699 36.5996C76.6699 35.6426 76.8327 34.8027 77.1582 34.0801C77.4837 33.3574 77.9395 32.7552 78.5254 32.2734C79.1178 31.7852 79.8145 31.4173 80.6152 31.1699C81.4225 30.9225 82.3079 30.7988 83.2715 30.7988C84.2936 30.7988 85.1562 30.9258 85.8594 31.1797C86.5625 31.4336 87.1289 31.7526 87.5586 32.1367C87.9948 32.5143 88.304 32.9245 88.4863 33.3672C88.6751 33.8034 88.7695 34.2135 88.7695 34.5977C88.7695 34.9036 88.724 35.2031 88.6328 35.4961C88.5482 35.7891 88.4049 36.056 88.2031 36.2969C88.0078 36.5378 87.7572 36.7331 87.4512 36.8828C87.1452 37.026 86.7708 37.0977 86.3281 37.0977C85.9049 37.0977 85.5599 37.0391 85.293 36.9219C85.026 36.7982 84.8177 36.6484 84.668 36.4727C84.5247 36.2904 84.4206 36.1016 84.3555 35.9062C84.2969 35.7044 84.2676 35.5156 84.2676 35.3398C84.2676 34.9427 84.362 34.627 84.5508 34.3926C84.7396 34.1582 84.9577 33.9954 85.2051 33.9043C85.0618 33.7936 84.9154 33.6895 84.7656 33.5918C84.6224 33.4876 84.3555 33.4355 83.9648 33.4355ZM95.332 37.2246C95.3581 38.1947 95.5404 38.8652 95.8789 39.2363C96.224 39.6009 96.7155 39.7832 97.3535 39.7832C97.5684 39.7832 97.7767 39.7539 97.9785 39.6953C98.1868 39.6302 98.3789 39.5293 98.5547 39.3926C98.7305 39.2493 98.8802 39.0638 99.0039 38.8359C99.1341 38.6016 99.2188 38.3086 99.2578 37.957H102.812C102.682 38.7969 102.441 39.5 102.09 40.0664C101.745 40.6328 101.299 41.0918 100.752 41.4434C100.205 41.7884 99.5671 42.0358 98.8379 42.1855C98.1152 42.3418 97.3079 42.4199 96.416 42.4199C95.498 42.4199 94.6354 42.3027 93.8281 42.0684C93.0208 41.834 92.3112 41.4792 91.6992 41.0039C91.0938 40.5221 90.6185 39.9199 90.2734 39.1973C89.9284 38.4681 89.7559 37.6022 89.7559 36.5996C89.7559 35.6426 89.9186 34.8027 90.2441 34.0801C90.5697 33.3574 91.0254 32.7552 91.6113 32.2734C92.2038 31.7852 92.9004 31.4173 93.7012 31.1699C94.5085 30.9225 95.3939 30.7988 96.3574 30.7988C97.5423 30.7988 98.5612 30.9551 99.4141 31.2676C100.267 31.5801 100.964 32.0163 101.504 32.5762C102.044 33.1361 102.441 33.8099 102.695 34.5977C102.949 35.3854 103.07 36.2611 103.057 37.2246H95.332ZM96.7773 33.4355C96.3216 33.4355 95.9831 33.5983 95.7617 33.9238C95.5469 34.2428 95.4036 34.7734 95.332 35.5156H98.1934C98.1543 34.8776 98.0176 34.373 97.7832 34.002C97.5488 33.6243 97.2135 33.4355 96.7773 33.4355Z" fill="black"/>
</svg>
